<svg width="60" height="60" viewBox="0 0 60 60" fill="none" xmlns="http://www.w3.org/2000/svg">
<path fill-rule="evenodd" clip-rule="evenodd" d="M59.1032 37.2585C55.0938 53.2964 38.7794 63.1127 22.7415 59.1032C6.70358 55.0938 -3.11272 38.8485 0.896751 22.7415C4.90623 6.70358 21.1515 -3.11272 37.2585 0.896751C53.2964 4.90623 63.1127 21.2206 59.1032 37.2585Z" fill="#F7931A"/>
<path fill-rule="evenodd" clip-rule="evenodd" d="M43.2074 25.7094C43.8296 21.6999 40.7879 19.5569 36.6402 18.1743L37.9536 12.7131L34.7046 11.9527L33.3911 17.2065C32.4924 16.9991 31.5938 16.7917 30.7642 16.5844L32.0777 11.2614L28.7595 10.4319L27.446 15.8239C26.6856 15.6857 25.9943 15.5474 25.303 15.34L20.8097 14.234L19.911 17.7595L22.3305 18.3126C23.6439 18.6582 23.8513 19.5569 23.8513 20.2482L22.2614 26.4007C22.3996 26.4007 22.5379 26.4698 22.607 26.5389C22.5379 26.4698 22.3996 26.4698 22.2614 26.4007L20.1184 35.0418C19.9801 35.4565 19.5653 36.0787 18.5975 35.8022C18.6667 35.8713 16.2472 35.2491 16.2472 35.2491L14.5881 38.9821L18.874 40.0882C19.7036 40.2956 20.464 40.5029 21.2244 40.7103L19.8419 46.1715L23.16 46.9319L24.4735 41.5399C25.3722 41.8164 26.2708 42.0238 27.1004 42.2312L25.7869 47.6232L29.1051 48.4528L30.4186 42.9916C36.018 44.0285 40.304 43.6137 42.0322 38.5673C43.4839 34.4196 41.9631 32.0692 38.9905 30.5484C41.2027 30.0645 42.7926 28.6128 43.2074 25.7094ZM35.6724 36.2861C34.7046 40.3647 27.7917 38.1526 25.5795 37.5995L27.3769 30.341C29.589 30.894 36.7784 32.0001 35.6724 36.2861ZM36.7093 25.6402C35.8106 29.3732 30.0729 27.5067 28.2064 27.0228L29.8655 20.4556C31.732 20.9395 37.6771 21.769 36.7093 25.6402Z" fill="white"/>
</svg>
