<svg viewBox="0 0 577 156" height="41px" xmlns="http://www.w3.org/2000/svg"><g fill="none"><path d="M194.824 125.673V34.73h31.145c10.322 0 18.153 2.136 23.492 6.23 5.34 4.093 8.009 10.322 8.009 18.508 0 4.094-1.068 8.009-3.382 11.212-2.313 3.382-5.517 5.873-9.966 7.831 4.983 1.424 8.72 3.915 11.39 7.475 2.67 3.56 4.093 8.187 4.093 13.348 0 8.542-2.67 15.127-8.186 19.754-5.517 4.628-13.348 6.941-23.492 6.941h-33.103v-.356zm15.84-52.679h15.483c4.983 0 8.72-1.068 11.568-3.381 2.848-2.314 4.093-5.34 4.093-9.433 0-4.45-1.245-7.83-3.915-9.788-2.67-1.958-6.585-3.026-11.924-3.026h-15.306v25.628zm0 11.568v28.475h17.619c4.983 0 8.898-1.245 11.568-3.737 2.847-2.492 4.27-5.873 4.27-10.322 0-9.433-4.804-14.238-14.593-14.594h-18.865v.178zM271.351 40.425c0-2.314.712-4.271 2.136-5.873 1.423-1.602 3.56-2.314 6.407-2.314s4.805.712 6.407 2.314c1.423 1.602 2.313 3.56 2.313 5.873 0 2.314-.712 4.271-2.313 5.695-1.424 1.602-3.56 2.314-6.407 2.314-2.848 0-4.806-.712-6.407-2.314-1.424-1.424-2.136-3.381-2.136-5.695zm16.195 85.248H272.42V58.044h15.127v67.63zM321.539 41.67v16.374h11.924v11.212h-11.924v37.73c0 2.67.534 4.45 1.602 5.517 1.067 1.068 2.847 1.78 5.517 1.78 1.78 0 3.559-.178 5.339-.712v11.746c-3.382.89-6.763 1.424-9.967 1.424-11.746 0-17.44-6.407-17.44-19.4V69.257h-11.213V58.044h11.212V41.67h14.95zM379.201 71.926c-1.957-.356-4.093-.534-6.229-.534-6.94 0-11.746 2.67-14.06 8.009v46.272h-15.127V58.044h14.594l.178 7.653c3.737-5.873 8.72-8.899 15.305-8.899 2.136 0 3.915.356 5.34.89v14.238zM415.686 126.919c-9.61 0-17.441-3.026-23.492-9.077-6.051-6.05-8.899-14.238-8.899-24.204V91.68c0-6.762 1.246-12.813 3.915-18.153 2.67-5.339 6.23-9.432 11.035-12.458 4.627-3.025 9.966-4.449 15.839-4.449 9.255 0 16.373 3.026 21.356 8.899 4.984 5.873 7.475 14.237 7.475 24.916v6.05H398.6c.534 5.518 2.314 9.967 5.518 13.348 3.203 3.382 7.474 4.806 12.28 4.806 6.94 0 12.635-2.848 17.085-8.365l8.186 7.83c-2.67 4.094-6.407 7.12-10.856 9.433-4.449 2.314-9.432 3.382-15.127 3.382zm-1.78-57.84c-4.093 0-7.475 1.423-10.144 4.448-2.492 2.848-4.272 6.941-4.983 12.28h29.009V84.74c-.356-5.162-1.602-8.899-4.094-11.568-2.313-2.848-5.695-4.094-9.788-4.094zM458.22 125.673V69.256h-10.322V58.044h10.322v-6.229c0-7.475 2.136-13.348 6.23-17.441 4.093-4.093 9.966-6.051 17.44-6.051 2.67 0 5.518.356 8.543 1.068l-.178 11.924c-1.602-.356-3.56-.534-5.873-.534-7.297 0-10.856 3.737-10.856 11.212v6.051h13.704v11.212h-13.704v56.417H458.22zM498.512 40.425c0-2.314.712-4.271 2.136-5.873 1.423-1.602 3.56-2.314 6.407-2.314s4.805.712 6.407 2.314c1.423 1.602 2.313 3.56 2.313 5.873 0 2.314-.712 4.271-2.313 5.695-1.424 1.602-3.56 2.314-6.407 2.314-2.848 0-4.806-.712-6.407-2.314-1.424-1.424-2.136-3.381-2.136-5.695zm16.017 85.248h-15.127V58.044h15.127v67.63zM545.675 125.673h-15.128V29.568h15.128v96.105zM576.642 125.673h-15.128V29.568h15.128v96.105z" fill="#2F2F2F"/><g><path d="M54.124 0h46.994c15.585 0 23.375 0 31.765 2.652a32.972 32.972 0 0 1 19.707 19.707c2.652 8.388 2.652 16.181 2.652 31.765v46.994c0 15.585 0 23.375-2.652 31.765a32.966 32.966 0 0 1-19.707 19.705c-8.39 2.654-16.18 2.654-31.765 2.654H54.124c-15.585 0-23.377 0-31.765-2.654a32.964 32.964 0 0 1-19.707-19.705C0 124.493 0 116.703 0 101.118V54.124C0 38.54 0 30.747 2.652 22.359A32.97 32.97 0 0 1 22.359 2.652C30.747 0 38.539 0 54.124 0z" fill="#449BF7"/></g><g><path fill-rule="evenodd" clip-rule="evenodd" d="M117.037 90.406c0 18.673-14.792 33.81-33.038 33.81-18.005 0-32.646-14.74-33.03-33.07h-4.247c.385 20.73 16.927 37.414 37.277 37.414 20.591 0 37.284-17.082 37.284-38.154 0-20.687-16.09-37.53-36.163-38.136v4.347c17.728.605 31.917 15.501 31.917 33.79z" fill="#fff"/><path fill-rule="evenodd" clip-rule="evenodd" d="M109.704 90.406c0 14.528-11.508 26.305-25.705 26.305-13.84 0-25.125-11.192-25.684-25.214h-4.248c.561 16.422 13.747 29.559 29.932 29.559 16.542 0 29.951-13.722 29.951-30.65 0-16.928-13.41-30.65-29.95-30.65-.593 0-1.18.018-1.764.052h3.395v4.345c13.436.861 24.073 12.286 24.073 26.253z" fill="#fff"/><path d="M54.088 29.269c0-1.2.95-2.173 2.123-2.173 1.172 0 2.122.973 2.122 2.173v62.228h-4.245V29.269zM75.229 56.614v-4.345H85.63v4.345H75.23zM61.476 47.377h4.245v43.768h-4.245V47.377zM46.715 47.377h4.245v43.768h-4.245V47.377z" fill="#fff"/><path d="M63.972 71.698v-4.345h19.794v4.345H63.972zM63.152 64.153v-4.345H85.63v4.345H63.152zM46.442 64.1c-1.172 0-2.123-.972-2.123-2.172 0-1.2.95-2.172 2.123-2.172h2.649v4.345h-2.649z" fill="#fff"/><path fill-rule="evenodd" clip-rule="evenodd" d="M65.706 29.122c0-5.366-4.25-9.717-9.495-9.717-5.244 0-9.496 4.35-9.496 9.717V61.54h4.246V29.12c0-2.967 2.35-5.372 5.25-5.372s5.25 2.405 5.25 5.372v32.42h4.245V29.122zM61.487 91.146c.382 12.387 10.314 22.309 22.512 22.309 12.438 0 22.522-10.32 22.522-23.049S96.437 67.358 84 67.358l-.234.001v4.345l.234-.001c10.094 0 18.277 8.373 18.277 18.703s-8.183 18.704-18.277 18.704c-9.853 0-17.884-7.977-18.264-17.964h-4.248z" fill="#fff"/><path fill-rule="evenodd" clip-rule="evenodd" d="M45.88 52.263h4.33v4.345h-4.332c-2.9 0-5.25 2.405-5.25 5.372s2.35 5.373 5.25 5.373h3.655v4.344H45.88c-5.244 0-9.495-4.35-9.495-9.717 0-5.367 4.251-9.717 9.495-9.717zm18.014 19.434H77.56v-4.344H63.894v4.344zm13.665-15.09H62.411v-4.344h15.148v4.345z" fill="#fff"/></g></g></svg>
