<svg width="60" height="60" fill="none" xmlns="http://www.w3.org/2000/svg"><path fill-rule="evenodd" clip-rule="evenodd" d="M30 60c16.59 0 30-13.426 30-29.965C60 13.425 46.59 0 30 0S0 13.426 0 30.035C0 46.575 13.48 60 30 60z" fill="#008CE3"/><path fill-rule="evenodd" clip-rule="evenodd" d="M34.558 16.81H22.807l-.968 5.467 10.645.07c5.185 0 6.775 1.868 6.705 5.051 0 1.592-.69 4.29-1.036 5.19-.76 2.353-2.42 5.052-8.641 5.052H19.143l-.967 5.467h11.75c4.148 0 5.945-.484 7.743-1.315 4.147-1.937 6.636-6.02 7.603-11.349 1.521-7.958-.345-13.633-10.714-13.633z" fill="#fff"/><path fill-rule="evenodd" clip-rule="evenodd" d="M17.765 27.27c-3.11 0-3.525 2.007-3.87 3.183-.346 1.592-.484 2.284-.484 2.284h12.096c3.042 0 3.526-2.007 3.802-3.253.346-1.591.484-2.214.484-2.214H17.765z" fill="#fff"/></svg>