<svg width="60" height="60" fill="none" xmlns="http://www.w3.org/2000/svg"><path fill-rule="evenodd" clip-rule="evenodd" d="M30 0C13.41 0 0 13.41 0 30s13.41 30 30 30 30-13.41 30-30S46.59 0 30 0z" fill="#C2A633"/><path fill-rule="evenodd" clip-rule="evenodd" d="M30.001 19.768h-4.286V28.2h6.775v3.525h-6.775v8.502h4.563c1.106 0 9.47.139 9.47-9.884-.07-9.954-8.088-10.576-9.747-10.576zm.484 26.405H19.632V31.726h-3.801v-3.525h3.801V13.754h9.332c2.212 0 16.797-.415 16.797 16.52 0 17.213-15.276 15.9-15.276 15.9z" fill="#fff"/></svg>