<svg width="60" height="60" fill="none" xmlns="http://www.w3.org/2000/svg"><path fill-rule="evenodd" clip-rule="evenodd" d="M59.126 37.258c-4.011 16.038-20.33 25.855-36.373 21.845C6.64 55.093-3.11 38.848.9 22.742 4.911 6.704 21.162-3.113 37.205.897c16.112 4.01 25.862 20.255 21.92 36.361z" fill="#DEE6EB"/><path fill-rule="evenodd" clip-rule="evenodd" d="M30.013 10.432l-.277.899v25.854l.277.276 11.963-7.12-11.963-19.91z" fill="#6489A8"/><path fill-rule="evenodd" clip-rule="evenodd" d="M30.014 10.432L17.982 30.34l12.032 7.12V10.432z" fill="#8BAECB"/><path fill-rule="evenodd" clip-rule="evenodd" d="M30.01 39.735l-.207.138v9.194l.208.484 11.963-16.936-11.963 7.12z" fill="#49779A"/><path fill-rule="evenodd" clip-rule="evenodd" d="M30.014 49.551v-9.816l-12.032-7.12L30.014 49.55z" fill="#7EA7C3"/><path fill-rule="evenodd" clip-rule="evenodd" d="M30.012 37.468l11.963-7.12-11.963-5.461v12.58z" fill="#497695"/><path fill-rule="evenodd" clip-rule="evenodd" d="M17.982 30.348l12.032 7.12V24.886l-12.032 5.462z" fill="#5B86A4"/></svg>