<?xml version="1.0" encoding="UTF-8"?>
<!DOCTYPE svg PUBLIC "-//W3C//DTD SVG 1.1//EN" "http://www.w3.org/Graphics/SVG/1.1/DTD/svg11.dtd">
<!-- Creator: CorelDRAW X8 -->
<svg xmlns="http://www.w3.org/2000/svg" xml:space="preserve" width="0.97222in" height="0.97222in" version="1.1" style="shape-rendering:geometricPrecision; text-rendering:geometricPrecision; image-rendering:optimizeQuality; fill-rule:evenodd; clip-rule:evenodd"
viewBox="0 0 7191 7191"
 xmlns:xlink="http://www.w3.org/1999/xlink">
 <defs>
  <style type="text/css">
   <![CDATA[
    .fil2 {fill:none}
    .fil0 {fill:#084A96}
    .fil1 {fill:white}
   ]]>
  </style>
   <clipPath id="id0">
    <path d="M3596 0c1985,0 3595,1610 3595,3596 0,1985 -1610,3595 -3595,3595 -1986,0 -3596,-1610 -3596,-3595 0,-1986 1610,-3596 3596,-3596z"/>
   </clipPath>
 </defs>
 <g id="Layer_x0020_1">
  <metadata id="CorelCorpID_0Corel-Layer"/>
  <path class="fil0" d="M3596 0c1985,0 3595,1610 3595,3596 0,1985 -1610,3595 -3595,3595 -1986,0 -3596,-1610 -3596,-3595 0,-1986 1610,-3596 3596,-3596z"/>
  <g style="clip-path:url(#id0)">
   <g id="_2616331218720">
    <path id="1" class="fil1" d="M1580 5186c446,39 1414,-34 1726,14 -37,213 -253,596 -336,774l-1076 2282c115,-65 3775,-4062 3835,-4231 -548,-48 -1747,31 -2132,-37l1464 -3144c-133,75 -723,859 -876,1050l-1741 2172c-149,186 -810,967 -864,1120z"/>
   </g>
  </g>
  <path class="fil2" d="M3596 0c1985,0 3595,1610 3595,3596 0,1985 -1610,3595 -3595,3595 -1986,0 -3596,-1610 -3596,-3595 0,-1986 1610,-3596 3596,-3596z"/>
 </g>
</svg>
